<?xml version="1.0" encoding="UTF-8"?>
<svg id="Calque_2" data-name="Calque 2" xmlns="http://www.w3.org/2000/svg" xmlns:xlink="http://www.w3.org/1999/xlink" viewBox="0 0 317.79 70.97">
  <defs>
    <style>
      .cls-1 {
        filter: url(#drop-shadow-1);
      }

      .cls-2 {
        fill: #e8daff;
        opacity: .24;
      }

      .cls-2, .cls-3, .cls-4, .cls-5, .cls-6 {
        stroke-width: 0px;
      }

      .cls-3 {
        fill: url(#Dégradé_sans_nom_207);
      }

      .cls-4 {
        fill: url(#Dégradé_sans_nom_371);
      }

      .cls-5 {
        fill: url(#Dégradé_sans_nom_472);
      }

      .cls-6 {
        fill: #fff;
      }
    </style>
    <filter id="drop-shadow-1" filterUnits="userSpaceOnUse">
      <feOffset dx="2" dy="2"/>
      <feGaussianBlur result="blur" stdDeviation="2"/>
      <feFlood flood-color="#000" flood-opacity=".1"/>
      <feComposite in2="blur" operator="in"/>
      <feComposite in="SourceGraphic"/>
    </filter>
    <linearGradient id="Dégradé_sans_nom_371" data-name="Dégradé sans nom 371" x1="72.92" y1="70.97" x2="72.92" y2="0" gradientUnits="userSpaceOnUse">
      <stop offset="0" stop-color="#652de6"/>
      <stop offset=".02" stop-color="#6431e6"/>
      <stop offset=".36" stop-color="#566ff1"/>
      <stop offset=".65" stop-color="#4d9df8"/>
      <stop offset=".87" stop-color="#47b9fd"/>
      <stop offset="1" stop-color="#45c4ff"/>
    </linearGradient>
    <linearGradient id="Dégradé_sans_nom_207" data-name="Dégradé sans nom 207" x1="41.61" y1="19.96" x2="41.61" y2="70.81" gradientUnits="userSpaceOnUse">
      <stop offset="0" stop-color="#ff17f8"/>
      <stop offset="1" stop-color="#862eff"/>
    </linearGradient>
    <linearGradient id="Dégradé_sans_nom_472" data-name="Dégradé sans nom 472" x1="9.27" y1="70.69" x2="9.27" y2="35.98" gradientUnits="userSpaceOnUse">
      <stop offset="0" stop-color="#ff3091"/>
      <stop offset=".23" stop-color="#ff4c73"/>
      <stop offset=".73" stop-color="#ff942a"/>
      <stop offset="1" stop-color="#ffbe00"/>
    </linearGradient>
  </defs>
  <g id="Calque_1-2" data-name="Calque 1">
    <g>
      <g class="cls-1">
        <path class="cls-6" d="M127.06,24.65c5.66,0,10.32,1.75,13.97,5.26,3.65,3.5,5.47,7.94,5.47,13.32v17.93h-11.52v-4.46c-2.35,3.46-6.02,5.18-11.02,5.18-4.56,0-8.4-1.7-11.52-5.11s-4.68-7.73-4.68-12.96c0-5.62,1.81-10.21,5.44-13.79,3.62-3.58,8.24-5.36,13.86-5.36ZM121.7,49.45c1.46,1.61,3.32,2.41,5.58,2.41s4.1-.81,5.54-2.45c1.44-1.63,2.16-3.7,2.16-6.19s-.72-4.55-2.16-6.16c-1.44-1.61-3.29-2.41-5.54-2.41s-4.12.8-5.58,2.41c-1.46,1.61-2.2,3.66-2.2,6.16s.73,4.62,2.2,6.23Z"/>
        <path class="cls-6" d="M169.76,15.22c0,1.83-.64,3.31-1.91,4.46-1.27,1.15-2.89,1.73-4.86,1.73s-3.66-.58-4.93-1.73c-1.27-1.15-1.91-2.64-1.91-4.46s.63-3.3,1.91-4.43c1.27-1.13,2.92-1.69,4.93-1.69s3.59.58,4.86,1.73c1.27,1.15,1.91,2.62,1.91,4.39ZM157.23,25.37h11.45v35.79h-11.45V25.37Z"/>
        <path class="cls-6" d="M208.56,11.33h7.34v32.11c0,5.33-1.76,9.72-5.29,13.18-3.53,3.46-8.03,5.18-13.5,5.18s-9.97-1.74-13.5-5.22c-3.53-3.48-5.29-7.93-5.29-13.36s1.68-9.56,5.04-13c3.36-3.43,7.63-5.15,12.82-5.15s9.31,1.85,12.38,5.54V11.33ZM197.19,55.39c3.31,0,6.04-1.12,8.17-3.35s3.2-5.1,3.2-8.6-1.07-6.31-3.2-8.57c-2.14-2.26-4.86-3.38-8.17-3.38s-5.96,1.13-8.1,3.38c-2.14,2.26-3.2,5.11-3.2,8.57s1.07,6.37,3.2,8.6c2.13,2.23,4.83,3.35,8.1,3.35Z"/>
        <path class="cls-6" d="M251.69,25.73h7.85l-13.97,35.42h-8.78l-13.97-35.42h7.85l10.51,28.15,10.51-28.15Z"/>
        <path class="cls-6" d="M276.1,16.15c0,1.25-.44,2.28-1.33,3.1-.89.82-2,1.22-3.35,1.22s-2.52-.41-3.38-1.22-1.3-1.85-1.3-3.1.43-2.34,1.3-3.13c.86-.79,1.99-1.19,3.38-1.19s2.52.4,3.38,1.19c.86.79,1.3,1.84,1.3,3.13ZM267.75,25.73h7.34v35.42h-7.34V25.73Z"/>
        <path class="cls-6" d="M294.75,54.96h23.04v6.19h-32.62v-5.54l22.9-23.69h-22.68v-6.19h32.26v5.54l-22.9,23.69Z"/>
      </g>
      <g>
        <path class="cls-2" d="M52.34,69.91c-1.06-2.99-.86-6.16-1.32-9.23-.99-6.55-.96-13.25-2.6-19.72-.41-1.61.04-3.17.76-4.63,3.09-8.77,6.15-17.55,9.29-26.31,1.08-3,1.79-6.14,3.39-8.94,1.1,6.06,2.54,11.46,2.65,17.56.09,4.97,2.01,8.16,1.31,13.14-1.94,5.32-4.48,12.91-6.39,18.24-2.38,6.63-4.72,13.27-7.08,19.9Z"/>
        <path class="cls-4" d="M61.85,1.08c.05-1.23,1-1.07,1.76-1.07,5.64.02,9.62,2.75,12.72,7.35,2.25,3.33,2.5,7.06,2.93,10.76,1.23,10.43,2.47,20.86,3.33,31.32.39,4.72,1.2,9.4,1.41,14.12.12,2.85-1.23,5.09-3.79,6.4-2.63,1.35-5.38,1.4-7.91-.2-2.86-1.81-3.52-4.76-3.82-7.91-.86-8.81-5.73-54.6-6.62-60.78Z"/>
        <path class="cls-2" d="M18.23,70.5c-1.31-7.39-1.19-15.81-2.2-23.24,3.61-5.88,6.55-12.13,9.96-18.12,1.65-2.9,2.89-6.03,4.9-8.73,1.09,2.97.76,6.13,1.12,9.19.57,4.87,1.98,8.23,2.28,13.13-2.06,2.02-4.2,6.35-5.57,8.78-3.13,5.53-9.93,18.7-10.48,19Z"/>
        <path class="cls-3" d="M51.02,60.68c.47,3.07.34,3.06,1.32,9.23-.17.89-.87.81-1.53.86-7.66.57-15.24-6-16-13.66-.42-4.29-3.6-32.78-3.93-36.7,3.46-1.14,6.6.09,9.47,1.72,4.72,2.69,7.04,7.09,7.83,12.36l2.83,26.19Z"/>
        <path class="cls-5" d="M18.54,69.6c.02.48-.11.75-.31.9-.34.25-.9.17-1.38.18-7.39.24-14.41-5.89-15.36-13.45-.53-4.26-1-8.52-1.45-12.79-.43-4.05,2.15-7.56,6.05-8.31,4.11-.79,7.83,1.44,9.09,5.3.62,1.91.66,3.86.84,5.82,1.02,7.42,1.18,9.91,2.51,22.33Z"/>
      </g>
    </g>
  </g>
</svg>